# xmcd
#
# Track frame offsets: 
#        150
#        12662
#        26127
#        39090
#        51135
#        61392
#        75067
#        87452
#        99810
#        112865
#        125940
#        138095
#
# Disc length: 1981 seconds
#
# Revision: 2
# Processed by: cddbd v1.5.2PL0 Copyright (c) Steve Scherf et al.
# Submitted via: ExactAudioCopy v0.90b4
#
DISCID=8d07bb0c
DTITLE=Marvin Gaye - How Sweet It Is To Be Loved By You
DYEAR=1965
DGENRE=Rock
TTITLE0=You're A Wonderful One
TTITLE1=How Sweet It Is (To Be Loved By You)
TTITLE2=Try It Baby
TTITLE3=Baby Don't You Do It
TTITLE4=Need Your Lovin' (Want You Back)
TTITLE5=One Of These Days
TTITLE6=No Good Without You
TTITLE7=Stepping Closer To Your Heart
TTITLE8=Need Somebody
TTITLE9=Me And My Lonely Room
TTITLE10=Now That You've Won Me
TTITLE11=Forever
EXTD=Originally Released January 21, 1965\nCD Edition Released March 9
EXTD=, 1992\n\nAMG EXPERT REVIEW: Another great album - Gaye was at thi
EXTD=s time Motown's finest solo vocalist (Smokey Robinson, Eddie Kend
EXTD=ricks, David Ruffin, and Levi Stubbs were all heading groups). Hi
EXTD=s vocal on the title track was both smooth and churning, celebrat
EXTD=ory and introspective. He could do no wrong during this period, r
EXTD=egardless of content, tempo, or arrangement. -- Ron Wynn\n\n
EXTT0=
EXTT1=
EXTT2=
EXTT3=
EXTT4=
EXTT5=
EXTT6=
EXTT7=
EXTT8=
EXTT9=
EXTT10=
EXTT11=
PLAYORDER=
